<mxfile host="app.diagrams.net" modified="2023-06-09T16:41:15.858Z" agent="Mozilla/5.0 (Macintosh; Intel Mac OS X 10_15_7) AppleWebKit/537.36 (KHTML, like Gecko) Chrome/113.0.0.0 Safari/537.36" version="21.3.8" etag="VYSd6Cy1qjJ8PVkSZOSf" type="github">
  <diagram name="PÃ¡gina-1" id="iOPefzFyoofLiZGzGvIJ">
    <mxGraphModel>
      <root>
        <mxCell id="0" />
        <mxCell id="1" parent="0" />
      </root>
    </mxGraphModel>
  </diagram>
</mxfile>
